<?xml version="1.0" encoding="UTF-8" standalone="no"?>
<!-- Created with Inkscape (http://www.inkscape.org/) -->

<svg
   version="1.1"
   id="svg2"
   xml:space="preserve"
   width="38.988998"
   height="38.988998"
   viewBox="0 0 38.988998 38.988999"
   sodipodi:docname="social icons.svg"
   inkscape:version="1.1.2 (1:1.1+202202050950+0a00cf5339)"
   xmlns:inkscape="http://www.inkscape.org/namespaces/inkscape"
   xmlns:sodipodi="http://sodipodi.sourceforge.net/DTD/sodipodi-0.dtd"
   xmlns="http://www.w3.org/2000/svg"
   xmlns:svg="http://www.w3.org/2000/svg"><defs
     id="defs6"><clipPath
       clipPathUnits="userSpaceOnUse"
       id="clipPath68"><path
         d="m 264.836,432.121 c -118.742,0 -215.0001,96.258 -215.0001,215 0,29.215 5.8243,57.067 16.3789,82.461 v -69.441 c 0,-42.071 34.4262,-76.481 76.4962,-76.493 h 139.437 c 42.071,0.012 76.497,34.422 76.497,76.493 v 139.441 c 0,18.426 -6.606,35.383 -17.559,48.625 81.102,-30.769 138.75,-109.195 138.75,-201.086 0,-118.742 -96.262,-215 -215,-215"
         id="path66" /></clipPath><clipPath
       clipPathUnits="userSpaceOnUse"
       id="clipPath80"><path
         d="M 282.148,583.648 H 142.711 c -42.07,0.012 -76.4962,34.422 -76.4962,76.493 v 69.441 70 c 0,42.07 34.4262,76.496 76.4962,76.496 h 19.984 c 16.746,-4.183 34.266,-6.406 52.305,-6.406 18.039,0 35.563,2.223 52.305,6.406 h 14.843 c 23.649,0 44.875,-10.875 58.938,-27.871 10.953,-13.242 17.559,-30.199 17.559,-48.625 V 660.141 c 0,-42.071 -34.426,-76.481 -76.497,-76.493"
         id="path78" /></clipPath><linearGradient
       x1="0"
       y1="0"
       x2="1"
       y2="0"
       gradientUnits="userSpaceOnUse"
       gradientTransform="matrix(-247.487,-247.487,-247.487,247.487,336.173,853.608)"
       spreadMethod="pad"
       id="linearGradient86"><stop
         style="stop-opacity:1;stop-color:#dfea1f"
         offset="0"
         id="stop82" /><stop
         style="stop-opacity:1;stop-color:#f9a837"
         offset="1"
         id="stop84" /></linearGradient><clipPath
       clipPathUnits="userSpaceOnUse"
       id="clipPath98"><path
         d="m 1122.47,859.25 c -115.98,0 -210.001,94.02 -210.001,210 0,115.98 94.021,210 210.001,210 115.98,0 210,-94.02 210,-210 0,-115.98 -94.02,-210 -210,-210"
         id="path96" /></clipPath><clipPath
       clipPathUnits="userSpaceOnUse"
       id="clipPath110"><path
         d="m 915.754,1084.98 v 139.44 c 0,42.08 34.418,76.49 76.488,76.49 h 139.448 c 42.07,0 76.49,-34.41 76.49,-76.49 v -139.44 c 0,-42.07 -34.42,-76.49 -76.49,-76.49 H 992.242 c -42.07,0 -76.488,34.42 -76.488,76.49 z"
         id="path108" /></clipPath><linearGradient
       x1="0"
       y1="0"
       x2="1"
       y2="0"
       gradientUnits="userSpaceOnUse"
       gradientTransform="matrix(-247.487,-247.487,-247.487,247.487,1185.71,1278.45)"
       spreadMethod="pad"
       id="linearGradient116"><stop
         style="stop-opacity:1;stop-color:#2fbbe1"
         offset="0"
         id="stop112" /><stop
         style="stop-opacity:1;stop-color:#3970c0"
         offset="1"
         id="stop114" /></linearGradient><clipPath
       clipPathUnits="userSpaceOnUse"
       id="clipPath128"><path
         d="m 1122.47,437.121 c -115.98,0 -210.001,94.02 -210.001,210 0,115.977 94.021,210 210.001,210 115.98,0 210,-94.023 210,-210 0,-115.98 -94.02,-210 -210,-210"
         id="path126" /></clipPath><clipPath
       clipPathUnits="userSpaceOnUse"
       id="clipPath140"><path
         d="m 915.746,660.141 0.008,139.441 c 0,42.07 34.418,76.496 76.488,76.496 h 139.448 c 42.07,0 76.49,-34.426 76.49,-76.496 V 660.141 c 0,-42.071 -34.42,-76.493 -76.49,-76.493 H 992.242 c -42.07,0 -76.488,34.422 -76.496,76.493 z"
         id="path138" /></clipPath><linearGradient
       x1="0"
       y1="0"
       x2="1"
       y2="0"
       gradientUnits="userSpaceOnUse"
       gradientTransform="matrix(-247.487,-247.487,-247.487,247.487,1185.71,853.607)"
       spreadMethod="pad"
       id="linearGradient146"><stop
         style="stop-opacity:1;stop-color:#3cba64"
         offset="0"
         id="stop142" /><stop
         style="stop-opacity:1;stop-color:#24b263"
         offset="1"
         id="stop144" /></linearGradient><clipPath
       clipPathUnits="userSpaceOnUse"
       id="clipPath160"><path
         d="m 693.652,437.121 c -115.98,0 -210,94.02 -210,210 0,19.008 2.524,37.418 7.258,54.93 v -41.91 c 0,-42.071 34.422,-76.481 76.492,-76.481 h 139.446 c 42.07,0 76.488,34.41 76.488,76.481 v 139.441 c 0,16.043 -5.004,30.973 -13.527,43.305 78.328,-30.496 133.843,-106.653 133.843,-195.766 0,-115.98 -94.023,-210 -210,-210"
         id="path158" /></clipPath><clipPath
       clipPathUnits="userSpaceOnUse"
       id="clipPath172"><path
         d="M 706.848,583.66 H 567.402 c -42.07,0 -76.492,34.41 -76.492,76.481 v 41.91 97.531 c 0,42.07 34.422,76.496 76.492,76.496 h 43.746 c 25.329,-10.832 53.219,-16.828 82.504,-16.828 17.817,0 35.114,2.219 51.633,6.395 9.742,-5.704 18.125,-13.5 24.524,-22.758 8.523,-12.332 13.527,-27.262 13.527,-43.305 V 660.141 c 0,-42.071 -34.418,-76.481 -76.488,-76.481"
         id="path170" /></clipPath><linearGradient
       x1="0"
       y1="0"
       x2="1"
       y2="0"
       gradientUnits="userSpaceOnUse"
       gradientTransform="matrix(-247.487,-247.487,-247.487,247.487,760.868,853.607)"
       spreadMethod="pad"
       id="linearGradient178"><stop
         style="stop-opacity:1;stop-color:#ef2f36"
         offset="0"
         id="stop174" /><stop
         style="stop-opacity:1;stop-color:#90191e"
         offset="1"
         id="stop176" /></linearGradient><clipPath
       clipPathUnits="userSpaceOnUse"
       id="clipPath190"><path
         d="m 745.285,865.645 c -11.308,6.628 -24.449,10.433 -38.437,10.433 h -95.7 c -74.968,32.055 -127.496,106.477 -127.496,193.172 0,115.98 94.02,210 210,210 115.977,0 210,-94.02 210,-210 0,-98.164 -67.355,-180.594 -158.367,-203.605"
         id="path188" /></clipPath><clipPath
       clipPathUnits="userSpaceOnUse"
       id="clipPath202"><path
         d="m 693.652,859.25 c -29.285,0 -57.175,5.996 -82.504,16.828 h 95.7 c 13.988,0 27.129,-3.805 38.437,-10.433 -16.519,-4.176 -33.816,-6.395 -51.633,-6.395"
         id="path200" /></clipPath><clipPath
       clipPathUnits="userSpaceOnUse"
       id="clipPath214"><path
         d="m 490.91,1084.98 v 139.45 c 0,42.07 34.422,76.48 76.492,76.48 h 139.446 c 42.07,0 76.488,-34.41 76.488,-76.48 v -139.45 c 0,-42.07 -34.418,-76.49 -76.488,-76.49 H 567.402 c -42.07,0 -76.492,34.42 -76.492,76.49 z"
         id="path212" /></clipPath><linearGradient
       x1="0"
       y1="0"
       x2="1"
       y2="0"
       gradientUnits="userSpaceOnUse"
       gradientTransform="matrix(-378.192,-378.192,-378.192,378.192,786.351,1303.93)"
       spreadMethod="pad"
       id="linearGradient230"><stop
         style="stop-opacity:1;stop-color:#f9d76c"
         offset="0"
         id="stop216" /><stop
         style="stop-opacity:1;stop-color:#f9d76c"
         offset="0.0011048"
         id="stop218" /><stop
         style="stop-opacity:1;stop-color:#f9a837"
         offset="0.209357"
         id="stop220" /><stop
         style="stop-opacity:1;stop-color:#f03d74"
         offset="0.37646"
         id="stop222" /><stop
         style="stop-opacity:1;stop-color:#e62299"
         offset="0.523815"
         id="stop224" /><stop
         style="stop-opacity:1;stop-color:#6f3ea2"
         offset="0.739443"
         id="stop226" /><stop
         style="stop-opacity:1;stop-color:#4850ab"
         offset="1"
         id="stop228" /></linearGradient><clipPath
       clipPathUnits="userSpaceOnUse"
       id="clipPath246"><path
         d="M 267.305,876.078 H 162.695 C 69.2305,899.438 0,983.969 0,1084.67 c 0,118.74 96.2578,215 215,215 118.742,0 215,-96.26 215,-215 0,-100.701 -69.23,-185.232 -162.695,-208.592"
         id="path244" /></clipPath><clipPath
       clipPathUnits="userSpaceOnUse"
       id="clipPath258"><path
         d="m 215,869.672 c -18.039,0 -35.559,2.223 -52.305,6.406 h 104.61 C 250.563,871.895 233.039,869.672 215,869.672"
         id="path256" /></clipPath><clipPath
       clipPathUnits="userSpaceOnUse"
       id="clipPath270"><path
         d="m 66.2148,1089.98 v 139.45 c 0,42.07 34.4222,76.48 76.4962,76.48 h 139.437 c 42.071,0 76.497,-34.41 76.497,-76.48 v -139.45 c 0,-42.07 -34.426,-76.49 -76.497,-76.49 h -46.875 l -24.546,5.98 -21.141,-5.98 h -46.875 c -42.074,0 -76.4962,34.42 -76.4962,76.49 z"
         id="path268" /></clipPath><linearGradient
       x1="0"
       y1="0"
       x2="1"
       y2="0"
       gradientUnits="userSpaceOnUse"
       gradientTransform="matrix(-247.487,-247.487,-247.487,247.487,336.173,1283.45)"
       spreadMethod="pad"
       id="linearGradient276"><stop
         style="stop-opacity:1;stop-color:#3f6abc"
         offset="0"
         id="stop272" /><stop
         style="stop-opacity:1;stop-color:#2d368c"
         offset="1"
         id="stop274" /></linearGradient><clipPath
       clipPathUnits="userSpaceOnUse"
       id="clipPath288"><path
         d="M 0,0 H 3508.93 V 1671.78 H 0 Z"
         id="path286" /></clipPath><clipPath
       clipPathUnits="userSpaceOnUse"
       id="clipPath294"><path
         d="M 264.836,-0.0117188 C 146.094,-0.0117188 49.8359,96.25 49.8359,214.988 c 0,118.742 96.2581,215 215.0001,215 118.738,0 215,-96.258 215,-215 0,-118.738 -96.262,-214.9997188 -215,-214.9997188"
         id="path292" /></clipPath><clipPath
       clipPathUnits="userSpaceOnUse"
       id="clipPath306"><path
         d="m 66.2148,235.09 v 139.441 c 0,42.071 34.4222,76.5 76.4962,76.5 h 139.437 c 42.071,0 76.497,-34.429 76.497,-76.5 V 235.09 c 0,-42.07 -34.426,-76.488 -76.497,-76.488 H 142.711 c -42.074,0 -76.4962,34.418 -76.4962,76.488 z"
         id="path304" /></clipPath><linearGradient
       x1="0"
       y1="0"
       x2="1"
       y2="0"
       gradientUnits="userSpaceOnUse"
       gradientTransform="matrix(-247.487,-247.487,-247.487,247.487,336.173,428.56)"
       spreadMethod="pad"
       id="linearGradient312"><stop
         style="stop-opacity:1;stop-color:#1679b3"
         offset="0"
         id="stop308" /><stop
         style="stop-opacity:1;stop-color:#2c54ad"
         offset="1"
         id="stop310" /></linearGradient><clipPath
       clipPathUnits="userSpaceOnUse"
       id="clipPath326"><path
         d="m 1527.53,855.793 c -106.77,9.906 -190.35,99.742 -190.35,209.097 0,115.98 94.02,210 210,210 115.98,0 210,-94.02 210,-210 0,-107.949 -81.45,-196.874 -186.24,-208.675 -6.47,0.598 -13.03,0.906 -19.66,0.906 -8.03,0 -15.95,-0.449 -23.75,-1.328"
         id="path324" /></clipPath><clipPath
       clipPathUnits="userSpaceOnUse"
       id="clipPath338"><path
         d="m 1340.46,1084.98 v 139.45 c 0,42.07 34.42,76.48 76.49,76.48 h 139.44 c 42.08,0 76.5,-34.41 76.5,-76.48 v -139.45 c 0,-42.07 -34.42,-76.49 -76.5,-76.49 h -139.44 c -42.07,0 -76.49,34.42 -76.49,76.49 z"
         id="path336" /></clipPath><linearGradient
       x1="0"
       y1="0"
       x2="1"
       y2="0"
       gradientUnits="userSpaceOnUse"
       gradientTransform="matrix(247.487,-247.487,-247.487,-247.487,1362.93,1278.45)"
       spreadMethod="pad"
       id="linearGradient344"><stop
         style="stop-opacity:1;stop-color:#1b1b3f"
         offset="0"
         id="stop340" /><stop
         style="stop-opacity:1;stop-color:#040606"
         offset="1"
         id="stop342" /></linearGradient><clipPath
       clipPathUnits="userSpaceOnUse"
       id="clipPath360"><path
         d="m 693.652,4.98828 c -115.98,0 -210,94.03122 -210,209.99972 0,115.992 94.02,210 210,210 115.977,0 210,-94.008 210,-210 0,-115.9685 -94.023,-209.99972 -210,-209.99972"
         id="path358" /></clipPath><clipPath
       clipPathUnits="userSpaceOnUse"
       id="clipPath372"><path
         d="m 490.91,235.09 v 139.441 c 0,42.071 34.422,76.5 76.492,76.5 h 139.446 c 42.07,0 76.488,-34.429 76.488,-76.5 V 235.09 c 0,-42.07 -34.418,-76.488 -76.488,-76.488 H 567.402 c -42.07,0 -76.492,34.418 -76.492,76.488 z"
         id="path370" /></clipPath><linearGradient
       x1="0"
       y1="0"
       x2="1"
       y2="0"
       gradientUnits="userSpaceOnUse"
       gradientTransform="matrix(0,-292.428,-292.428,0,637.124,451.03)"
       spreadMethod="pad"
       id="linearGradient378"><stop
         style="stop-opacity:1;stop-color:#f14895"
         offset="0"
         id="stop374" /><stop
         style="stop-opacity:1;stop-color:#c91894"
         offset="1"
         id="stop376" /></linearGradient><clipPath
       clipPathUnits="userSpaceOnUse"
       id="clipPath390"><path
         d="m 1551.28,437.121 c -115.98,0 -209.99,94.02 -209.99,210 0,107.942 81.44,196.867 186.24,208.672 6.47,-0.602 13.02,-0.906 19.65,-0.906 8.03,0 15.96,0.449 23.76,1.328 106.76,-9.906 190.34,-99.742 190.34,-209.094 0,-115.98 -94.01,-210 -210,-210"
         id="path388" /></clipPath><clipPath
       clipPathUnits="userSpaceOnUse"
       id="clipPath402"><path
         d="m 1547.18,854.887 c -6.63,0 -13.18,0.304 -19.65,0.906 7.8,0.879 15.72,1.328 23.75,1.328 6.63,0 13.19,-0.308 19.66,-0.906 -7.8,-0.879 -15.73,-1.328 -23.76,-1.328"
         id="path400" /></clipPath><clipPath
       clipPathUnits="userSpaceOnUse"
       id="clipPath414"><path
         d="m 1340.59,660.141 v 139.441 c 0,42.07 34.43,76.496 76.5,76.496 h 139.43 c 42.07,0 76.5,-34.426 76.5,-76.496 V 660.141 c 0,-42.071 -34.43,-76.493 -76.5,-76.493 h -139.43 c -42.07,0 -76.5,34.422 -76.5,76.493 z"
         id="path412" /></clipPath><linearGradient
       x1="0"
       y1="0"
       x2="1"
       y2="0"
       gradientUnits="userSpaceOnUse"
       gradientTransform="matrix(-247.487,-247.487,-247.487,247.487,1610.55,853.608)"
       spreadMethod="pad"
       id="linearGradient420"><stop
         style="stop-opacity:1;stop-color:#2e68bb"
         offset="0"
         id="stop416" /><stop
         style="stop-opacity:1;stop-color:#2d368c"
         offset="1"
         id="stop418" /></linearGradient><clipPath
       clipPathUnits="userSpaceOnUse"
       id="clipPath436"><path
         d="m 1551.28,4.98828 c -115.98,0 -209.99,94.03122 -209.99,209.99972 0,115.992 94.01,210 209.99,210 115.99,0 210,-94.008 210,-210 0,-115.9685 -94.01,-209.99972 -210,-209.99972"
         id="path434" /></clipPath><clipPath
       clipPathUnits="userSpaceOnUse"
       id="clipPath448"><path
         d="m 1340.59,235.09 v 139.441 c 0,42.071 34.42,76.5 76.5,76.5 h 139.43 c 42.07,0 76.5,-34.429 76.5,-76.5 V 235.09 c 0,-42.07 -34.43,-76.488 -76.5,-76.488 h -139.43 c -42.08,0 -76.5,34.418 -76.5,76.488 z"
         id="path446" /></clipPath><linearGradient
       x1="0"
       y1="0"
       x2="1"
       y2="0"
       gradientUnits="userSpaceOnUse"
       gradientTransform="matrix(0,-292.428,-292.428,0,1486.8,451.03)"
       spreadMethod="pad"
       id="linearGradient454"><stop
         style="stop-opacity:1;stop-color:#19ae5b"
         offset="0"
         id="stop450" /><stop
         style="stop-opacity:1;stop-color:#069757"
         offset="1"
         id="stop452" /></linearGradient><clipPath
       clipPathUnits="userSpaceOnUse"
       id="clipPath470"><path
         d="m 1126.45,9.32031 c -115.99,0 -210.005,94.00769 -210.005,209.99969 0,115.981 94.015,210 210.005,210 115.97,0 210,-94.019 210,-210 0,-115.992 -94.03,-209.99969 -210,-209.99969"
         id="path468" /></clipPath><clipPath
       clipPathUnits="userSpaceOnUse"
       id="clipPath482"><path
         d="m 915.754,235.051 v 139.437 c 0,42.082 34.418,76.492 76.488,76.492 h 139.448 c 42.07,0 76.49,-34.41 76.49,-76.492 V 235.051 c 0,-42.071 -34.42,-76.492 -76.49,-76.492 H 992.242 c -42.07,0 -76.488,34.421 -76.488,76.492 z"
         id="path480" /></clipPath><linearGradient
       x1="0"
       y1="0"
       x2="1"
       y2="0"
       gradientUnits="userSpaceOnUse"
       gradientTransform="matrix(-247.487,-247.487,-247.487,247.487,1185.71,428.51)"
       spreadMethod="pad"
       id="linearGradient488"><stop
         style="stop-opacity:1;stop-color:#f04148"
         offset="0"
         id="stop484" /><stop
         style="stop-opacity:1;stop-color:#e51a46"
         offset="1"
         id="stop486" /></linearGradient><clipPath
       clipPathUnits="userSpaceOnUse"
       id="clipPath500"><path
         d="m 2012.48,432.121 c -118.75,0 -215,96.258 -215,215 0,29.215 5.82,57.063 16.38,82.453 v -69.433 c 0,-42.071 34.42,-76.481 76.49,-76.493 h 139.45 c 42.07,0.012 76.48,34.422 76.49,76.493 l -0.01,139.441 c 0,18.426 -6.6,35.387 -17.56,48.629 81.11,-30.766 138.76,-109.191 138.76,-201.09 0,-118.742 -96.26,-215 -215,-215"
         id="path498" /></clipPath><clipPath
       clipPathUnits="userSpaceOnUse"
       id="clipPath516"><path
         d="m 2870.11,859.25 c -115.98,0 -210,94.02 -210,210 0,115.98 94.02,210 210,210 115.97,0 210,-94.02 210,-210 0,-115.98 -94.03,-210 -210,-210"
         id="path514" /></clipPath><clipPath
       clipPathUnits="userSpaceOnUse"
       id="clipPath532"><path
         d="m 2870.11,437.121 c -115.98,0 -210,94.02 -210,210 0,115.977 94.02,210 210,210 115.97,0 210,-94.023 210,-210 0,-115.98 -94.03,-210 -210,-210"
         id="path530" /></clipPath><clipPath
       clipPathUnits="userSpaceOnUse"
       id="clipPath550"><path
         d="m 2441.29,437.121 c -115.98,0 -210,94.02 -210,210 0,19.02 2.53,37.445 7.27,54.961 v -41.941 c 0,-42.071 34.41,-76.481 76.48,-76.481 h 139.44 c 42.07,0 76.5,34.41 76.5,76.481 v 139.441 c 0,16.043 -5.01,30.973 -13.53,43.305 78.33,-30.496 133.84,-106.653 133.84,-195.766 0,-115.98 -94.01,-210 -210,-210"
         id="path548" /></clipPath><clipPath
       clipPathUnits="userSpaceOnUse"
       id="clipPath566"><path
         d="m 2492.93,865.645 c -11.32,6.625 -24.46,10.433 -38.45,10.433 h -95.69 c -74.97,32.055 -127.5,106.477 -127.5,193.172 0,115.98 94.02,210 210,210 115.99,0 210,-94.02 210,-210 0,-98.164 -67.35,-180.594 -158.36,-203.605"
         id="path564" /></clipPath><clipPath
       clipPathUnits="userSpaceOnUse"
       id="clipPath578"><path
         d="m 2441.29,859.25 c -29.28,0 -57.18,5.996 -82.5,16.828 h 95.69 c 13.99,0 27.13,-3.808 38.45,-10.433 -16.52,-4.176 -33.82,-6.395 -51.64,-6.395"
         id="path576" /></clipPath><clipPath
       clipPathUnits="userSpaceOnUse"
       id="clipPath598"><path
         d="m 2072.72,862.805 c -12.26,8.367 -27.04,13.273 -42.92,13.273 h -111.82 c -71.37,34.977 -120.5,108.336 -120.5,193.172 0,118.74 96.25,215 215,215 118.74,0 215,-96.26 215,-215 0,-97.832 -65.33,-180.398 -154.76,-206.445"
         id="path596" /></clipPath><clipPath
       clipPathUnits="userSpaceOnUse"
       id="clipPath610"><path
         d="m 2012.48,854.25 c -33.9,0 -65.98,7.852 -94.5,21.828 h 111.82 c 15.88,0 30.66,-4.906 42.92,-13.273 -19.11,-5.567 -39.33,-8.555 -60.24,-8.555"
         id="path608" /></clipPath><clipPath
       clipPathUnits="userSpaceOnUse"
       id="clipPath626"><path
         d="M 0,0 H 3508.93 V 1671.78 H 0 Z"
         id="path624" /></clipPath><clipPath
       clipPathUnits="userSpaceOnUse"
       id="clipPath632"><path
         d="m 2012.48,-0.0117188 c -118.75,0 -215,96.2617188 -215,214.9997188 0,118.742 96.25,215 215,215 118.74,0 215,-96.258 215,-215 0,-118.738 -96.26,-214.9997188 -215,-214.9997188"
         id="path630" /></clipPath><clipPath
       clipPathUnits="userSpaceOnUse"
       id="clipPath650"><path
         d="m 2441.29,4.98828 c -115.98,0 -210,94.03122 -210,209.99972 0,115.992 94.02,210 210,210 115.99,0 210,-94.008 210,-210 0,-115.9685 -94.01,-209.99972 -210,-209.99972"
         id="path648" /></clipPath><clipPath
       clipPathUnits="userSpaceOnUse"
       id="clipPath666"><path
         d="m 3341.23,441.379 c -11,6.141 -23.64,9.652 -37.07,9.652 h -80.54 c -78.78,30.27 -134.69,106.649 -134.69,196.09 0,0.867 0,1.75 0.01,2.617 5.12,-37.199 37.24,-66.09 75.79,-66.09 h 139.44 c 42.07,0.012 76.48,34.422 76.5,76.493 l -0.02,139.441 c 0,17.758 -6.13,34.152 -16.38,47.172 83.99,-27.473 144.66,-106.469 144.66,-199.633 0,-101.492 -72,-186.16 -167.7,-205.742"
         id="path664" /></clipPath><clipPath
       clipPathUnits="userSpaceOnUse"
       id="clipPath686"><path
         d="m 3344.84,864.285 c -11.8,7.465 -25.75,11.793 -40.67,11.793 h -87.74 c -74.97,32.055 -127.5,106.477 -127.5,193.172 0,115.98 94.02,210 210,210 115.97,0 210,-94.02 210,-210 0,-100.211 -70.19,-184.023 -164.09,-204.965"
         id="path684" /></clipPath><clipPath
       clipPathUnits="userSpaceOnUse"
       id="clipPath698"><path
         d="m 3298.93,859.25 c -29.29,0 -57.18,5.996 -82.5,16.828 h 87.74 c 14.92,0 28.87,-4.328 40.67,-11.793 -14.78,-3.297 -30.14,-5.035 -45.91,-5.035"
         id="path696" /></clipPath><clipPath
       clipPathUnits="userSpaceOnUse"
       id="clipPath714"><path
         d="m 3298.93,4.98828 c -115.98,0 -210,94.03122 -210,209.99972 0,2.883 0.06,5.762 0.17,8.614 5.59,-36.672 37.46,-65 75.63,-65 h 139.44 c 42.07,0 76.48,34.418 76.48,76.488 v 139.441 c 0,13.789 -3.69,26.75 -10.13,37.938 80.73,-29.258 138.41,-106.629 138.41,-197.481 0,-115.9685 -94.03,-209.99972 -210,-209.99972"
         id="path712" /></clipPath><clipPath
       clipPathUnits="userSpaceOnUse"
       id="clipPath734"><path
         d="m 2874.08,9.35938 c -115.97,0 -210,94.01962 -210,209.99962 0,115.981 94.03,210 210,210 115.99,0 210,-94.019 210,-210 0,-115.98 -94.01,-209.99962 -210,-209.99962"
         id="path732" /></clipPath><clipPath
       clipPathUnits="userSpaceOnUse"
       id="clipPath1740"><path
         d="m 3878.77,1779.04 c -26.8,0 -51.03,11.01 -68.41,28.77 15.22,-10.22 33.55,-16.18 53.27,-16.18 52.84,0 95.68,42.82 95.68,95.64 v 105.58 c 20.34,-14.53 45.24,-23.07 72.14,-23.07 v 40.72 c 4.98,-1.05 10.05,-1.58 15.15,-1.58 v -51.74 c -26.9,0 -51.81,8.55 -72.14,23.07 v 0 0 0 -105.58 c 0,-52.82 -42.84,-95.63 -95.69,-95.63 m -34.99,69.3 c -14.28,7.2 -24.07,21.99 -24.07,39.08 0,24.16 19.59,43.74 43.77,43.74 4.5,0 8.98,-0.69 13.28,-2.05 v 41.17 c 0.68,0.02 1.36,0.02 2.05,0.02 4.38,0 8.75,-0.3 13.09,-0.89 v -52.89 c -4.28,1.35 -8.74,2.04 -13.23,2.04 -0.02,0 -0.03,0 -0.04,0 -24.18,0 -43.77,-19.58 -43.77,-43.74 -0.02,-9.57 3.12,-18.88 8.92,-26.48 m 149.37,184.11 c -17.11,10.67 -29.44,28.27 -33.05,48.87 h 14.36 v -6.65 c 1.48,-16.21 8.3,-30.88 18.69,-42.22"
         id="path1738" /></clipPath><linearGradient
       x1="0"
       y1="0"
       x2="1"
       y2="0"
       gradientUnits="userSpaceOnUse"
       gradientTransform="matrix(24.8358,0,0,-24.8358,-360.21658,-288.78425)"
       spreadMethod="pad"
       id="linearGradient1748"><stop
         style="stop-opacity:1;stop-color:#1c1c42"
         offset="0"
         id="stop1744" /><stop
         style="stop-opacity:1;stop-color:#050606"
         offset="1"
         id="stop1746" /></linearGradient><clipPath
       clipPathUnits="userSpaceOnUse"
       id="clipPath1760"><path
         d="m 6849.02,1846.59 4.64,-2.77 c 17.05,-10.16 36.45,-15.53 56.08,-15.53 60.58,0 109.86,49.28 109.86,109.86 0,60.57 -49.28,109.85 -109.86,109.85 -60.57,0 -109.85,-49.28 -109.85,-109.85 0,-20 5.55,-39.7 16.06,-56.96 l 2.85,-4.68 -10.97,-40.96 z m -77.41,-47.25 19.67,73.37 c -11.14,20.08 -17,42.59 -17,65.44 0,74.69 60.77,135.46 135.46,135.46 74.7,0 135.47,-60.77 135.47,-135.46 0,-74.7 -60.77,-135.46 -135.47,-135.46 -22.42,0 -44.57,5.66 -64.39,16.41 z"
         id="path1758" /></clipPath><linearGradient
       x1="0"
       y1="0"
       x2="1"
       y2="0"
       gradientUnits="userSpaceOnUse"
       gradientTransform="matrix(-197.109,197.109,197.109,197.109,6997.46,1807.7)"
       spreadMethod="pad"
       id="linearGradient1766"><stop
         style="stop-opacity:1;stop-color:#60c459"
         offset="0"
         id="stop1762" /><stop
         style="stop-opacity:1;stop-color:#3dba61"
         offset="1"
         id="stop1764" /></linearGradient><linearGradient
       x1="0"
       y1="0"
       x2="1"
       y2="0"
       gradientUnits="userSpaceOnUse"
       gradientTransform="matrix(-19.711,19.711,19.711,19.711,-37.24158,-300.12525)"
       spreadMethod="pad"
       id="linearGradient1774"><stop
         style="stop-opacity:1;stop-color:#60c459"
         offset="0"
         id="stop1770" /><stop
         style="stop-opacity:1;stop-color:#3dba61"
         offset="1"
         id="stop1772" /></linearGradient><clipPath
       clipPathUnits="userSpaceOnUse"
       id="clipPath1784"><path
         d="m 6958.77,1363.81 c -2.97,-7.22 -10.36,-11.86 -17.85,-13.28 -7.15,-1.35 -13.05,0.92 -19.68,3.11 -5.9,1.95 -11.61,4.8 -16.9,8.04 -10.6,6.49 -19.76,15.18 -27.11,25.18 -2.25,3.05 -4.34,6.23 -6.26,9.5 -2.54,4.34 -4.8,8.91 -5.98,13.8 -0.49,2.03 -0.75,4.13 -0.78,6.24 -0.08,7.41 2.75,14.9 8.61,19.67 3.39,2.76 8.42,3.97 12.23,1.82 4.14,-2.35 6.3,-8.25 8.22,-12.39 1.5,-3.24 3.21,-7.49 2.59,-11.13 -0.62,-3.64 -3.5,-6.71 -5.8,-9.41 -1.55,-1.82 -1.78,-3.37 -0.49,-5.34 7.59,-12.65 18.13,-21.83 31.89,-27.31 1.87,-0.76 3.32,-0.52 4.54,0.98 2.38,2.93 4.72,8.67 8.38,10.17 4.78,1.95 10.05,-0.75 14.11,-3.18 3.77,-2.26 10.09,-5.03 11.11,-9.7 0.49,-2.25 0.05,-4.63 -0.83,-6.77 z m -46.93,110.06 c -44.05,0 -79.89,-35.84 -79.89,-79.89 0,-14.55 4.04,-28.87 11.69,-41.42 l 2.07,-3.4 -7.98,-29.79 29.95,8.03 3.38,-2.02 c 12.4,-7.38 26.5,-11.29 40.78,-11.29 44.05,0 79.89,35.84 79.89,79.89 0,44.05 -35.84,79.89 -79.89,79.89 z m 0,-178.4 c -16.3,0 -32.41,4.11 -46.82,11.93 l -53.63,-14.36 14.3,53.35 c -8.1,14.61 -12.36,30.98 -12.36,47.59 0,54.32 44.19,98.51 98.51,98.51 54.32,0 98.52,-44.19 98.52,-98.51 0,-54.32 -44.2,-98.51 -98.52,-98.51 z m -3.43,258.18 c -91.61,0 -165.88,-74.26 -165.88,-165.88 0,-91.61 74.27,-165.87 165.88,-165.87 91.61,0 165.88,74.26 165.88,165.87 0,91.62 -74.27,165.88 -165.88,165.88 z"
         id="path1782" /></clipPath><linearGradient
       x1="0"
       y1="0"
       x2="1"
       y2="0"
       gradientUnits="userSpaceOnUse"
       gradientTransform="matrix(-234.586,234.586,234.586,234.586,7025.7,1270.48)"
       spreadMethod="pad"
       id="linearGradient1790"><stop
         style="stop-opacity:1;stop-color:#60c459"
         offset="0"
         id="stop1786" /><stop
         style="stop-opacity:1;stop-color:#3dba61"
         offset="1"
         id="stop1788" /></linearGradient><clipPath
       clipPathUnits="userSpaceOnUse"
       id="clipPath1800"><path
         d="m 4559.22,1930.52 -76.55,-37.87 c -3,-1.62 -13.2,0.55 -13.2,3.96 v 77.74 c 0,3.46 10.28,5.63 13.28,3.92 l 73.28,-39.87 c 3.07,-1.75 6.29,-6.19 3.19,-7.88 z m 100.38,45.68 c 0,36.86 -29.88,66.75 -66.75,66.75 h -170.7 c -36.87,0 -66.76,-29.89 -66.76,-66.75 v -79.44 c 0,-36.87 29.89,-66.76 66.76,-66.76 h 170.7 c 36.87,0 66.75,29.89 66.75,66.76 z"
         id="path1798" /></clipPath><linearGradient
       x1="0"
       y1="0"
       x2="1"
       y2="0"
       gradientUnits="userSpaceOnUse"
       gradientTransform="matrix(-281.747,215.506,215.506,281.747,4639.65,1835.39)"
       spreadMethod="pad"
       id="linearGradient1806"><stop
         style="stop-opacity:1;stop-color:#ee252c"
         offset="0"
         id="stop1802" /><stop
         style="stop-opacity:1;stop-color:#971a1f"
         offset="1"
         id="stop1804" /></linearGradient><clipPath
       clipPathUnits="userSpaceOnUse"
       id="clipPath1816"><path
         d="m 4619.03,1416.1 c 0,26.29 -21.31,47.6 -47.6,47.6 h -121.71 c -26.29,0 -47.6,-21.31 -47.6,-47.6 v -56.64 c 0,-26.29 21.31,-47.6 47.6,-47.6 h 121.71 c 26.29,0 47.6,21.31 47.6,47.6 z m 54.35,-28.33 c 0,-91.61 -74.27,-165.87 -165.88,-165.87 -91.61,0 -165.88,74.26 -165.88,165.87 0,91.62 74.27,165.88 165.88,165.88 91.61,0 165.88,-74.26 165.88,-165.88 z m -125.93,-4.24 -54.58,-27 c -2.14,-1.16 -9.41,0.39 -9.41,2.83 v 55.42 c 0,2.47 7.33,4.02 9.47,2.8 l 52.25,-28.43 c 2.19,-1.25 4.49,-4.42 2.27,-5.62 z"
         id="path1814" /></clipPath><linearGradient
       x1="0"
       y1="0"
       x2="1"
       y2="0"
       gradientUnits="userSpaceOnUse"
       gradientTransform="matrix(-234.587,234.587,234.587,234.587,4624.79,1270.48)"
       spreadMethod="pad"
       id="linearGradient1822"><stop
         style="stop-opacity:1;stop-color:#ee252c"
         offset="0"
         id="stop1818" /><stop
         style="stop-opacity:1;stop-color:#971a1f"
         offset="1"
         id="stop1820" /></linearGradient><clipPath
       clipPathUnits="userSpaceOnUse"
       id="clipPath1832"><path
         d="m 5206.24,1946.33 -39.41,-39.41 h -39.4 l -34.48,-34.48 v 34.48 h -44.33 v 147.77 h 157.62 z m -167.47,128.06 -49.26,-49.25 v -177.33 h 59.11 v -49.25 l 49.25,49.25 h 39.41 l 88.66,88.67 v 137.91 z"
         id="path1830" /></clipPath><linearGradient
       x1="0"
       y1="0"
       x2="1"
       y2="0"
       gradientUnits="userSpaceOnUse"
       gradientTransform="matrix(182.803,-182.803,-182.803,-182.803,5003.8,2065.03)"
       spreadMethod="pad"
       id="linearGradient1838"><stop
         style="stop-opacity:1;stop-color:#7041a4"
         offset="0"
         id="stop1834" /><stop
         style="stop-opacity:1;stop-color:#5a4ba9"
         offset="1"
         id="stop1836" /></linearGradient><clipPath
       clipPathUnits="userSpaceOnUse"
       id="clipPath1848"><path
         d="m 5156.98,2020.21 h 19.7 v -59.11 h -19.7 z"
         id="path1846" /></clipPath><linearGradient
       x1="0"
       y1="0"
       x2="1"
       y2="0"
       gradientUnits="userSpaceOnUse"
       gradientTransform="matrix(182.806,-182.806,-182.806,-182.806,5048.13,2109.36)"
       spreadMethod="pad"
       id="linearGradient1854"><stop
         style="stop-opacity:1;stop-color:#7041a4"
         offset="0"
         id="stop1850" /><stop
         style="stop-opacity:1;stop-color:#5a4ba9"
         offset="1"
         id="stop1852" /></linearGradient><clipPath
       clipPathUnits="userSpaceOnUse"
       id="clipPath1864"><path
         d="m 5102.8,2020.21 h 19.7 v -59.11 h -19.7 z"
         id="path1862" /></clipPath><linearGradient
       x1="0"
       y1="0"
       x2="1"
       y2="0"
       gradientUnits="userSpaceOnUse"
       gradientTransform="matrix(182.805,-182.805,-182.805,-182.805,5021.04,2082.27)"
       spreadMethod="pad"
       id="linearGradient1870"><stop
         style="stop-opacity:1;stop-color:#7041a4"
         offset="0"
         id="stop1866" /><stop
         style="stop-opacity:1;stop-color:#5a4ba9"
         offset="1"
         id="stop1868" /></linearGradient><clipPath
       clipPathUnits="userSpaceOnUse"
       id="clipPath1880"><path
         d="m 2841.42,2021.41 c -8.62,-3.9 -18.15,-6.27 -27.45,-7.83 4.42,0.74 10.9,8.73 13.5,11.97 3.97,4.93 7.25,10.54 9.11,16.61 l -0.06,1.43 -1.45,-0.12 c -10.39,-5.57 -21.13,-9.6 -32.55,-12.46 -0.95,-0.23 -1.65,0 -2.25,0.6 -0.95,1.07 -1.84,2.07 -2.84,2.91 -4.81,4.08 -9.96,7.29 -15.77,9.66 -7.63,3.11 -15.97,4.42 -24.18,3.89 -8,-0.52 -15.85,-2.77 -22.94,-6.48 -7.11,-3.71 -13.46,-8.88 -18.51,-15.11 -5.23,-6.45 -9.08,-14.07 -11.05,-22.14 -1.91,-7.79 -1.75,-15.5 -0.59,-23.37 0.18,-1.31 0.06,-1.49 -1.12,-1.31 -44.7,6.65 -81.76,22.65 -111.84,56.93 -1.31,1.48 -2.01,1.48 -3.08,-0.12 -13.17,-19.73 -6.78,-51.43 9.66,-67 2.2,-2.08 4.45,-4.16 6.88,-6.05 -0.89,-0.18 -11.83,1 -21.58,6.05 -1.31,0.82 -1.97,0.35 -2.08,-1.13 -0.12,-2.14 0.06,-4.1 0.35,-6.41 2.53,-20 16.38,-38.5 35.35,-45.72 2.25,-0.94 4.74,-1.78 7.17,-2.19 -4.32,-0.95 -8.77,-1.62 -21.17,-0.65 -1.54,0.29 -2.13,-0.48 -1.54,-1.96 9.31,-25.38 29.42,-32.94 44.47,-37.24 2.02,-0.35 4.03,-0.35 6.06,-0.83 l -0.36,-0.35 c -5,-7.62 -22.31,-13.28 -30.37,-16.1 -14.67,-5.13 -30.63,-7.43 -46.13,-5.91 -2.48,0.37 -3,0.34 -3.67,0 l 0.71,-1.65 c 3.14,-2.08 6.34,-3.92 9.6,-5.7 9.85,-5.21 20.11,-9.37 30.84,-12.33 55.41,-15.3 117.83,-4.06 159.43,37.28 32.68,32.46 44.13,77.23 44.13,122.05 0,1.76 2.07,2.73 3.3,3.65 8.5,6.39 15.36,14.03 21.7,22.57 1.42,1.91 1.44,3.62 1.44,4.32 v 0.24 c 0,0.71 -0.02,0.5 -1.12,0 z"
         id="path1878" /></clipPath><linearGradient
       x1="0"
       y1="0"
       x2="1"
       y2="0"
       gradientUnits="userSpaceOnUse"
       gradientTransform="matrix(-162.029,162.029,162.029,162.029,2799.25,1851.48)"
       spreadMethod="pad"
       id="linearGradient1886"><stop
         style="stop-opacity:1;stop-color:#58c9f5"
         offset="0"
         id="stop1882" /><stop
         style="stop-opacity:1;stop-color:#4571c1"
         offset="1"
         id="stop1884" /></linearGradient><clipPath
       clipPathUnits="userSpaceOnUse"
       id="clipPath1896"><path
         d="m 2815.89,1455.46 c 0,-0.56 -0.02,-1.92 -1.15,-3.46 -5.07,-6.82 -10.55,-12.92 -17.34,-18.03 -0.99,-0.74 -2.64,-1.51 -2.64,-2.91 0,-35.82 -9.15,-71.6 -35.26,-97.54 -33.25,-33.03 -83.13,-42.02 -127.41,-29.79 -8.57,2.37 -16.77,5.69 -24.64,9.86 -2.6,1.42 -5.16,2.89 -7.67,4.55 l -0.57,1.32 c 0.54,0.27 0.95,0.29 2.94,0 12.38,-1.22 25.14,0.62 36.85,4.72 6.45,2.25 20.28,6.78 24.27,12.86 l 0.29,0.29 c -1.62,0.38 -3.23,0.38 -4.84,0.66 -12.03,3.44 -28.09,9.47 -35.54,29.76 -0.47,1.18 0,1.8 1.24,1.56 9.9,-0.77 13.46,-0.23 16.91,0.52 -1.94,0.33 -3.93,1 -5.73,1.76 -15.16,5.76 -26.22,20.55 -28.24,36.53 -0.24,1.85 -0.38,3.41 -0.29,5.12 0.1,1.18 0.62,1.56 1.66,0.9 7.8,-4.03 16.54,-4.98 17.25,-4.83 -1.94,1.51 -3.74,3.17 -5.49,4.83 -13.14,12.45 -18.25,37.78 -7.73,53.55 0.86,1.28 1.42,1.28 2.47,0.09 24.04,-27.39 53.64,-40.18 89.37,-45.49 0.94,-0.14 1.03,0 0.89,1.04 -0.93,6.29 -1.05,12.45 0.47,18.68 1.58,6.45 4.66,12.53 8.83,17.69 4.04,4.98 9.11,9.11 14.79,12.08 5.67,2.96 11.95,4.76 18.33,5.17 6.57,0.43 13.23,-0.62 19.33,-3.11 4.64,-1.89 8.76,-4.45 12.6,-7.72 l 2.27,-2.32 1.79,-0.48 c 9.14,2.28 17.72,5.51 26.01,9.95 l 1.17,0.1 0.04,-1.14 c -1.48,-4.85 -4.1,-9.34 -7.28,-13.28 -2.07,-2.58 -7.25,-8.97 -10.78,-9.56 7.43,1.25 15.05,3.14 21.93,6.26 h 0.9 z m -109.08,98.19 c -91.61,0 -165.87,-74.26 -165.87,-165.88 0,-91.61 74.26,-165.87 165.87,-165.87 91.61,0 165.88,74.26 165.88,165.87 0,91.62 -74.27,165.88 -165.88,165.88 z"
         id="path1894" /></clipPath><linearGradient
       x1="0"
       y1="0"
       x2="1"
       y2="0"
       gradientUnits="userSpaceOnUse"
       gradientTransform="matrix(-234.587,234.587,234.587,234.587,2824.11,1270.48)"
       spreadMethod="pad"
       id="linearGradient1902"><stop
         style="stop-opacity:1;stop-color:#58c9f5"
         offset="0"
         id="stop1898" /><stop
         style="stop-opacity:1;stop-color:#4571c1"
         offset="1"
         id="stop1900" /></linearGradient><clipPath
       clipPathUnits="userSpaceOnUse"
       id="clipPath1912"><path
         d="m 2179.44,2024.94 c -8.91,0 -16.13,-7.22 -16.13,-16.13 0,-8.91 7.22,-16.14 16.13,-16.14 8.91,0 16.14,7.23 16.14,16.14 0,8.91 -7.23,16.13 -16.14,16.13 z"
         id="path1910" /></clipPath><linearGradient
       x1="0"
       y1="0"
       x2="1"
       y2="0"
       gradientUnits="userSpaceOnUse"
       gradientTransform="matrix(258.765,-258.765,-258.765,-258.765,2043.54,2144.71)"
       spreadMethod="pad"
       id="linearGradient1928"><stop
         style="stop-opacity:1;stop-color:#fbde69"
         offset="0"
         id="stop1914" /><stop
         style="stop-opacity:1;stop-color:#fbde69"
         offset="0.0011048"
         id="stop1916" /><stop
         style="stop-opacity:1;stop-color:#f9b02e"
         offset="0.209357"
         id="stop1918" /><stop
         style="stop-opacity:1;stop-color:#f03979"
         offset="0.37646"
         id="stop1920" /><stop
         style="stop-opacity:1;stop-color:#ef229b"
         offset="0.523815"
         id="stop1922" /><stop
         style="stop-opacity:1;stop-color:#7041a4"
         offset="0.739443"
         id="stop1924" /><stop
         style="stop-opacity:1;stop-color:#4a51ac"
         offset="1"
         id="stop1926" /></linearGradient><clipPath
       clipPathUnits="userSpaceOnUse"
       id="clipPath1938"><path
         d="m 2107.72,1893.06 c -23.94,0 -43.42,19.48 -43.42,43.42 0,23.94 19.48,43.41 43.42,43.41 23.93,0 43.41,-19.47 43.41,-43.41 0,-23.94 -19.48,-43.42 -43.41,-43.42 z m 0,111.19 c -37.38,0 -67.78,-30.4 -67.78,-67.77 0,-37.37 30.4,-67.78 67.78,-67.78 37.36,0 67.77,30.41 67.77,67.78 0,37.37 -30.41,67.77 -67.77,67.77 z"
         id="path1936" /></clipPath><linearGradient
       x1="0"
       y1="0"
       x2="1"
       y2="0"
       gradientUnits="userSpaceOnUse"
       gradientTransform="matrix(258.769,-258.769,-258.769,-258.769,1971.51,2072.68)"
       spreadMethod="pad"
       id="linearGradient1954"><stop
         style="stop-opacity:1;stop-color:#fbde69"
         offset="0"
         id="stop1940" /><stop
         style="stop-opacity:1;stop-color:#fbde69"
         offset="0.0011048"
         id="stop1942" /><stop
         style="stop-opacity:1;stop-color:#f9b02e"
         offset="0.209357"
         id="stop1944" /><stop
         style="stop-opacity:1;stop-color:#f03979"
         offset="0.37646"
         id="stop1946" /><stop
         style="stop-opacity:1;stop-color:#ef229b"
         offset="0.523815"
         id="stop1948" /><stop
         style="stop-opacity:1;stop-color:#7041a4"
         offset="0.739443"
         id="stop1950" /><stop
         style="stop-opacity:1;stop-color:#4a51ac"
         offset="1"
         id="stop1952" /></linearGradient><clipPath
       clipPathUnits="userSpaceOnUse"
       id="clipPath1964"><path
         d="m 2051.65,2048.19 c -31.31,0 -56.78,-25.47 -56.78,-56.77 v -109.88 c 0,-31.31 25.47,-56.78 56.78,-56.78 h 109.87 c 31.31,0 56.78,25.47 56.78,56.78 v 109.88 c 0,31.3 -25.47,56.77 -56.78,56.77 z m 109.87,-249.32 h -109.87 c -45.58,0 -82.67,37.09 -82.67,82.67 v 109.88 c 0,45.58 37.09,82.66 82.67,82.66 h 109.87 c 45.58,0 82.67,-37.08 82.67,-82.66 v -109.88 c 0,-45.58 -37.09,-82.67 -82.67,-82.67 z"
         id="path1962" /></clipPath><linearGradient
       x1="0"
       y1="0"
       x2="1"
       y2="0"
       gradientUnits="userSpaceOnUse"
       gradientTransform="matrix(258.77,-258.77,-258.77,-258.77,1970.94,2072.12)"
       spreadMethod="pad"
       id="linearGradient1980"><stop
         style="stop-opacity:1;stop-color:#fbde69"
         offset="0"
         id="stop1966" /><stop
         style="stop-opacity:1;stop-color:#fbde69"
         offset="0.0011048"
         id="stop1968" /><stop
         style="stop-opacity:1;stop-color:#f9b02e"
         offset="0.209357"
         id="stop1970" /><stop
         style="stop-opacity:1;stop-color:#f03979"
         offset="0.37646"
         id="stop1972" /><stop
         style="stop-opacity:1;stop-color:#ef229b"
         offset="0.523815"
         id="stop1974" /><stop
         style="stop-opacity:1;stop-color:#7041a4"
         offset="0.739443"
         id="stop1976" /><stop
         style="stop-opacity:1;stop-color:#4a51ac"
         offset="1"
         id="stop1978" /></linearGradient><clipPath
       clipPathUnits="userSpaceOnUse"
       id="clipPath1990"><path
         d="m 2159.82,1428.84 c -6.51,0 -11.79,5.28 -11.79,11.79 0,6.51 5.28,11.79 11.79,11.79 6.51,0 11.79,-5.28 11.79,-11.79 0,-6.51 -5.28,-11.79 -11.79,-11.79 z m -52.41,-90.58 c -27.3,0 -49.52,22.21 -49.52,49.52 0,27.31 22.22,49.52 49.52,49.52 27.31,0 49.52,-22.21 49.52,-49.52 0,-27.31 -22.21,-49.52 -49.52,-49.52 z m 39.32,131.14 h -80.29 c -22.87,0 -41.48,-18.6 -41.48,-41.48 v -80.29 c 0,-22.87 18.61,-41.48 41.48,-41.48 h 80.29 c 22.87,0 41.48,18.61 41.48,41.48 v 80.29 c 0,22.88 -18.61,41.48 -41.48,41.48 z m -7.6,-81.62 c 0,-17.5 -14.23,-31.72 -31.72,-31.72 -17.49,0 -31.72,14.22 -31.72,31.72 0,17.49 14.23,31.72 31.72,31.72 17.49,0 31.72,-14.23 31.72,-31.72 z m 68,-40.15 c 0,-33.3 -27.1,-60.4 -60.4,-60.4 h -80.29 c -33.3,0 -60.4,27.1 -60.4,60.4 v 80.29 c 0,33.31 27.1,60.4 60.4,60.4 h 80.29 c 33.3,0 60.4,-27.09 60.4,-60.4 z m -100.54,206.02 c -91.62,0 -165.88,-74.26 -165.88,-165.88 0,-91.61 74.26,-165.87 165.88,-165.87 91.61,0 165.87,74.26 165.87,165.87 0,91.62 -74.26,165.88 -165.87,165.88 z"
         id="path1988" /></clipPath><linearGradient
       x1="0"
       y1="0"
       x2="1"
       y2="0"
       gradientUnits="userSpaceOnUse"
       gradientTransform="matrix(234.587,-234.587,-234.587,-234.587,1989.29,1505.07)"
       spreadMethod="pad"
       id="linearGradient2006"><stop
         style="stop-opacity:1;stop-color:#fbde69"
         offset="0"
         id="stop1992" /><stop
         style="stop-opacity:1;stop-color:#fbde69"
         offset="0.0011048"
         id="stop1994" /><stop
         style="stop-opacity:1;stop-color:#f9b02e"
         offset="0.209357"
         id="stop1996" /><stop
         style="stop-opacity:1;stop-color:#f03979"
         offset="0.37646"
         id="stop1998" /><stop
         style="stop-opacity:1;stop-color:#ef229b"
         offset="0.523815"
         id="stop2000" /><stop
         style="stop-opacity:1;stop-color:#7041a4"
         offset="0.739443"
         id="stop2002" /><stop
         style="stop-opacity:1;stop-color:#4a51ac"
         offset="1"
         id="stop2004" /></linearGradient><clipPath
       clipPathUnits="userSpaceOnUse"
       id="clipPath2016"><path
         d="m 1532,1788.8 v 129.22 h 43.09 l 8.2,53.45 H 1532 v 34.69 c 0,14.62 7.16,28.88 30.13,28.88 h 23.32 v 45.5 c 0,0 -21.16,3.61 -41.39,3.61 -42.24,0 -69.85,-25.59 -69.85,-71.94 v -40.74 h -46.95 v -53.45 h 46.95 V 1788.8 Z"
         id="path2014" /></clipPath><linearGradient
       x1="0"
       y1="0"
       x2="1"
       y2="0"
       gradientUnits="userSpaceOnUse"
       gradientTransform="matrix(-202.985,202.985,202.985,202.985,1628.29,1836.21)"
       spreadMethod="pad"
       id="linearGradient2022"><stop
         style="stop-opacity:1;stop-color:#416dbe"
         offset="0"
         id="stop2018" /><stop
         style="stop-opacity:1;stop-color:#2b3998"
         offset="1"
         id="stop2020" /></linearGradient><clipPath
       clipPathUnits="userSpaceOnUse"
       id="clipPath2032"><path
         d="m 1571.65,1469.9 h -19.43 c -19.14,0 -25.11,-11.87 -25.11,-24.06 v -28.9 h 42.73 l -6.83,-44.54 h -35.9 v -107.68 h -48.15 v 107.68 h -39.12 v 44.54 h 39.12 v 33.94 c 0,38.62 23,59.95 58.2,59.95 16.86,0 34.49,-3.01 34.49,-3.01 z m -65.29,83.75 c -91.61,0 -165.88,-74.26 -165.88,-165.88 0,-91.61 74.27,-165.87 165.88,-165.87 91.61,0 165.88,74.26 165.88,165.87 0,91.62 -74.27,165.88 -165.88,165.88 z"
         id="path2030" /></clipPath><linearGradient
       x1="0"
       y1="0"
       x2="1"
       y2="0"
       gradientUnits="userSpaceOnUse"
       gradientTransform="matrix(-234.587,234.587,234.587,234.587,1623.65,1270.48)"
       spreadMethod="pad"
       id="linearGradient2038"><stop
         style="stop-opacity:1;stop-color:#416dbe"
         offset="0"
         id="stop2034" /><stop
         style="stop-opacity:1;stop-color:#2b3998"
         offset="1"
         id="stop2036" /></linearGradient><linearGradient
       x1="0"
       y1="0"
       x2="1"
       y2="0"
       gradientUnits="userSpaceOnUse"
       gradientTransform="matrix(-18.7962,18.7962,18.7962,18.7962,-400.03958,-297.01925)"
       spreadMethod="pad"
       id="linearGradient2046"><stop
         style="stop-opacity:1;stop-color:#f04043"
         offset="0"
         id="stop2042" /><stop
         style="stop-opacity:1;stop-color:#ed1848"
         offset="1"
         id="stop2044" /></linearGradient><clipPath
       clipPathUnits="userSpaceOnUse"
       id="clipPath2056"><path
         d="m 3370.23,1363.84 c -21.29,-26.41 -55.81,-28.16 -71.74,-11.95 -1.23,1.24 -2.21,2.7 -3.41,4.19 l -0.47,-1.61 c -7.64,-29.96 -8.49,-36.61 -16.35,-50.52 -3.75,-6.61 -7.97,-12.87 -12.63,-18.87 -0.53,-0.68 -1.02,-1.55 -2.08,-1.34 -1.15,0.25 -1.24,1.28 -1.36,2.21 -1.26,9.1 -1.96,18.23 -1.65,27.41 0.39,11.97 1.87,16.08 17.3,80.97 0.23,0.99 -0.02,1.81 -0.36,2.71 -3.69,9.96 -4.42,20.07 -1.19,30.32 6.98,22.14 32.07,23.83 36.46,5.57 2.7,-11.29 -4.45,-26.08 -9.93,-47.92 -4.55,-18.03 16.67,-30.85 34.81,-17.69 16.72,12.13 23.21,41.22 21.98,61.83 -2.43,41.1 -47.5,49.98 -76.09,36.75 -32.78,-15.16 -40.23,-55.79 -25.43,-74.35 1.88,-2.37 3.32,-3.81 2.7,-6.21 -0.95,-3.71 -1.79,-7.46 -2.82,-11.16 -0.76,-2.75 -3.07,-3.75 -5.85,-2.62 -5.45,2.21 -10,5.69 -13.68,10.26 -12.57,15.56 -16.17,46.34 0.45,72.4 18.41,28.88 52.65,40.55 83.92,37.01 37.34,-4.25 60.94,-29.76 65.37,-58.71 2.01,-13.18 0.56,-45.7 -17.95,-68.68 z m -63.19,189.81 c -91.61,0 -165.88,-74.26 -165.88,-165.88 0,-91.61 74.27,-165.87 165.88,-165.87 91.61,0 165.88,74.26 165.88,165.87 0,91.62 -74.27,165.88 -165.88,165.88 z"
         id="path2054" /></clipPath><linearGradient
       x1="0"
       y1="0"
       x2="1"
       y2="0"
       gradientUnits="userSpaceOnUse"
       gradientTransform="matrix(-234.587,234.587,234.587,234.587,3424.33,1270.48)"
       spreadMethod="pad"
       id="linearGradient2062"><stop
         style="stop-opacity:1;stop-color:#f04043"
         offset="0"
         id="stop2058" /><stop
         style="stop-opacity:1;stop-color:#ed1848"
         offset="1"
         id="stop2060" /></linearGradient><clipPath
       clipPathUnits="userSpaceOnUse"
       id="clipPath2080"><path
         d="m 3907.27,1221.9 c -91.61,0 -165.88,74.26 -165.88,165.88 0,91.61 74.27,165.87 165.88,165.87 91.61,0 165.88,-74.26 165.88,-165.87 0,-91.62 -74.27,-165.88 -165.88,-165.88 m -64.61,73.15 c 12.65,-12.93 30.31,-20.96 49.84,-20.96 38.5,0 69.71,31.19 69.71,69.67 v 76.92 c 14.81,-10.58 32.95,-16.81 52.55,-16.81 v 37.7 c -3.71,0 -7.41,0.38 -11.04,1.15 v -29.67 c -19.59,0 -37.74,6.23 -52.55,16.81 v -76.92 c 0,-38.48 -31.21,-69.67 -69.71,-69.67 -14.36,0 -27.71,4.34 -38.8,11.78 m 38.69,89.87 c -17.61,0 -31.89,-14.27 -31.89,-31.87 0,-12.45 7.14,-23.22 17.54,-28.47 -4.22,5.54 -6.51,12.32 -6.5,19.29 0,17.6 14.28,31.87 31.89,31.87 3.28,0 6.54,-0.5 9.67,-1.49 v 38.53 c -3.16,0.44 -6.36,0.65 -9.55,0.65 -0.49,0 -0.99,0 -1.48,-0.01 v -30 c -3.13,1 -6.4,1.5 -9.68,1.5 m 70.4,109.39 c 2.63,-15 11.61,-27.83 24.07,-35.6 -7.57,8.27 -12.54,18.95 -13.61,30.76 v 4.84 h -10.46"
         id="path2078" /></clipPath><linearGradient
       x1="0"
       y1="0"
       x2="1"
       y2="0"
       gradientUnits="userSpaceOnUse"
       gradientTransform="matrix(331.756,0,0,-331.756,3741.39,1387.77)"
       spreadMethod="pad"
       id="linearGradient2086"><stop
         style="stop-opacity:1;stop-color:#1c1c42"
         offset="0"
         id="stop2082" /><stop
         style="stop-opacity:1;stop-color:#050606"
         offset="1"
         id="stop2084" /></linearGradient><clipPath
       clipPathUnits="userSpaceOnUse"
       id="clipPath2096"><path
         d="m 3892.5,1274.09 c -19.53,0 -37.19,8.03 -49.84,20.96 11.09,-7.44 24.44,-11.78 38.8,-11.78 38.5,0 69.71,31.19 69.71,69.67 v 76.92 c 14.81,-10.58 32.96,-16.81 52.55,-16.81 v 29.67 c 3.63,-0.77 7.33,-1.15 11.04,-1.15 v -37.7 c -19.6,0 -37.74,6.23 -52.55,16.81 v -76.92 c 0,-38.48 -31.21,-69.67 -69.71,-69.67 m -25.5,50.49 c -10.4,5.25 -17.54,16.02 -17.54,28.47 0,17.6 14.28,31.87 31.89,31.87 3.28,0 6.55,-0.5 9.68,-1.5 v 30 c 0.49,0.01 0.99,0.01 1.48,0.01 3.19,0 6.39,-0.21 9.55,-0.65 v -38.53 c -3.13,0.99 -6.39,1.49 -9.67,1.49 -17.61,0 -31.89,-14.27 -31.89,-31.87 -0.01,-6.97 2.28,-13.75 6.5,-19.29 m 108.82,134.13 c -12.46,7.77 -21.44,20.6 -24.07,35.6 h 10.46 v -4.84 c 1.07,-11.81 6.04,-22.49 13.61,-30.76"
         id="path2094" /></clipPath><linearGradient
       x1="0"
       y1="0"
       x2="1"
       y2="0"
       gradientUnits="userSpaceOnUse"
       gradientTransform="matrix(331.756,0,0,-331.756,3741.39,1387.77)"
       spreadMethod="pad"
       id="linearGradient2102"><stop
         style="stop-opacity:1;stop-color:#d51359"
         offset="0"
         id="stop2098" /><stop
         style="stop-opacity:1;stop-color:#cd164a"
         offset="1"
         id="stop2100" /></linearGradient><clipPath
       clipPathUnits="userSpaceOnUse"
       id="clipPath2176"><path
         d="m 5201.67,1379.98 -72.36,-72.36 h -32.16 l -40.21,-40.2 v 40.2 h -48.24 v 144.73 l 40.2,40.2 h 152.77 z m -93.95,173.67 c -91.61,0 -165.87,-74.26 -165.87,-165.87 0,-91.62 74.26,-165.88 165.87,-165.88 91.62,0 165.88,74.26 165.88,165.88 0,91.61 -74.26,165.87 -165.88,165.87 z m -6.55,-105.32 h 16.08 v -48.25 h -16.08 z m 44.22,0 h 16.08 v -48.25 h -16.08 z m -52.26,-120.61 28.14,28.14 h 32.16 l 32.16,32.16 v 88.45 h -128.65 v -120.61 h 36.19 z"
         id="path2174" /></clipPath><linearGradient
       x1="0"
       y1="0"
       x2="1"
       y2="0"
       gradientUnits="userSpaceOnUse"
       gradientTransform="matrix(331.756,0,0,-331.756,4941.85,1387.77)"
       spreadMethod="pad"
       id="linearGradient2182"><stop
         style="stop-opacity:1;stop-color:#7041a4"
         offset="0"
         id="stop2178" /><stop
         style="stop-opacity:1;stop-color:#5a4ba9"
         offset="1"
         id="stop2180" /></linearGradient></defs><sodipodi:namedview
     id="namedview4"
     pagecolor="#ffffff"
     bordercolor="#666666"
     borderopacity="1.0"
     inkscape:pageshadow="2"
     inkscape:pageopacity="0.0"
     inkscape:pagecheckerboard="0"
     showgrid="false"
     showguides="false"
     inkscape:zoom="2.1884863"
     inkscape:cx="119.03204"
     inkscape:cy="117.43276"
     inkscape:window-width="1920"
     inkscape:window-height="1004"
     inkscape:window-x="1920"
     inkscape:window-y="45"
     inkscape:window-maximized="1"
     inkscape:current-layer="g8"
     width="38.989px" /><g
     id="g8"
     inkscape:groupmode="layer"
     inkscape:label="ink_ext_XXXXXX"
     transform="matrix(1.3333333,0,0,-1.3333333,0,222.90667)"><g
       id="g9058"
       transform="translate(-216.58637,63.035723)"><path
         d="m 216.58574,82.551207 v 13.9441 c 0,4.207003 3.442,7.649603 7.649,7.649603 h 13.945 c 4.20701,0 7.64901,-3.4426 7.64901,-7.649603 v -13.9441 c 0,-4.2071 -3.442,-7.6493 -7.64901,-7.6493 h -13.945 c -4.207,0 -7.649,3.4422 -7.649,7.6493"
         style="fill:#cc0021;fill-opacity:1;fill-rule:nonzero;stroke:none;stroke-width:0.1"
         id="path538" /><path
         d="m 228.10674,84.178907 0.288,-0.1719 c 1.057,-0.6301 2.259,-0.9629 3.477,-0.9629 3.755,0 6.811,3.0559 6.811,6.8106 0,3.7558 -3.056,6.8117 -6.811,6.8117 -3.756,0 -6.811,-3.0559 -6.811,-6.8117 0,-1.2403 0.344,-2.461 0.996,-3.5313 l 0.176,-0.2898 -0.68,-2.5395 z m -4.799,-2.9297 1.219,4.5488 c -0.69,1.2454 -1.053,2.6407 -1.053,4.0567 0,4.6308 3.767,8.3984 8.398,8.3984 4.631,0 8.399,-3.7676 8.399,-8.3984 0,-4.6309 -3.768,-8.3985 -8.399,-8.3985 -1.391,0 -2.764,0.352 -3.992,1.018 l -4.572,-1.225"
         style="fill:#ffffff;fill-opacity:1;fill-rule:nonzero;stroke:none;stroke-width:0.1"
         id="path540" /><path
         d="m 234.99574,88.686707 c -0.346,0.207 -0.796,0.4375 -1.203,0.2715 -0.312,-0.1277 -0.512,-0.6172 -0.714,-0.8672 -0.103,-0.1277 -0.227,-0.1473 -0.388,-0.084 -1.172,0.468 -2.071,1.2512 -2.718,2.3293 -0.11,0.168 -0.09,0.2996 0.043,0.4551 0.195,0.2305 0.44,0.4922 0.493,0.8016 0.053,0.3105 -0.093,0.673 -0.221,0.9492 -0.164,0.3535 -0.347,0.8566 -0.7,1.0566 -0.325,0.1836 -0.754,0.0801 -1.043,-0.1551 -0.5,-0.4074 -0.741,-1.0449 -0.733,-1.6769 0.001,-0.1797 0.023,-0.3594 0.065,-0.532 0.102,-0.4172 0.294,-0.8067 0.511,-1.177 0.163,-0.2793 0.341,-0.5496 0.533,-0.8105 0.627,-0.8516 1.407,-1.5918 2.311,-2.1454 0.452,-0.2765 0.938,-0.5195 1.442,-0.6855 0.564,-0.1867 1.067,-0.3809 1.678,-0.2648 0.637,0.121 1.267,0.5156 1.521,1.1308 0.074,0.1828 0.112,0.386 0.07,0.5781 -0.087,0.3977 -0.626,0.634 -0.947,0.8262"
         style="fill:#ffffff;fill-opacity:1;fill-rule:evenodd;stroke:none;stroke-width:0.1"
         id="path542" /></g></g></svg>
