<?xml version="1.0" encoding="UTF-8" standalone="no"?>
<!-- Created with Inkscape (http://www.inkscape.org/) -->

<svg
   width="92.82mm"
   height="92.82mm"
   viewBox="0 0 92.82 92.82"
   version="1.1"
   id="svg5"
   inkscape:version="1.1.2 (1:1.1+202202050950+0a00cf5339)"
   xmlns:inkscape="http://www.inkscape.org/namespaces/inkscape"
   xmlns:sodipodi="http://sodipodi.sourceforge.net/DTD/sodipodi-0.dtd"
   xmlns="http://www.w3.org/2000/svg"
   xmlns:svg="http://www.w3.org/2000/svg">
  <sodipodi:namedview
     id="namedview7"
     pagecolor="#ffffff"
     bordercolor="#666666"
     borderopacity="1.0"
     inkscape:pageshadow="2"
     inkscape:pageopacity="0.0"
     inkscape:pagecheckerboard="0"
     inkscape:document-units="mm"
     showgrid="false"
     inkscape:zoom="0.51969075"
     inkscape:cx="-170.29358"
     inkscape:cy="379.07159"
     inkscape:window-width="1920"
     inkscape:window-height="1004"
     inkscape:window-x="1920"
     inkscape:window-y="45"
     inkscape:window-maximized="1"
     inkscape:current-layer="layer1" />
  <defs
     id="defs2" />
  <g
     inkscape:label="Camada 1"
     inkscape:groupmode="layer"
     id="layer1">
    <path
       style="fill:#ffffff;stroke-width:0.205911"
       d="m 26.317944,92.244288 c -0.323322,-0.484988 -1.008367,-0.716206 -1.28694,-1.211856 -0.413662,-0.736011 -0.447251,-1.075241 -0.443072,-4.474753 0.0054,-4.22624 0.232159,-5.113738 1.472156,-5.756679 0.376967,-0.195457 4.281285,-1.784365 8.818886,-3.06792 l 8.133492,-2.712542 0.05845,-2.19647 0.05845,-2.19647 h 3.074738 3.074737 l 0.05845,2.19647 0.05845,2.19647 8.133492,2.712542 c 4.473424,1.4919 8.441916,2.872463 8.818883,3.06792 1.233444,0.63954 1.46695,1.538626 1.472156,5.668223 0.0039,3.209557 -0.04039,3.682763 -0.419677,4.466201 -0.307984,0.636201 -0.664273,0.992491 -1.300483,1.300474 -1.093662,0.529434 -1.627462,0.532749 -2.693373,0.01673 -1.346959,-0.652054 -1.615306,-1.352795 -1.759282,-4.208601 l -0.102954,-2.453984 -5.765517,-1.923329 c -3.17103,-1.057824 -5.927667,-1.975144 -6.125855,-2.038463 -0.33281,-0.106339 -0.360344,0.13273 -0.360344,3.128313 0,2.854143 -0.0509,3.348618 -0.424199,4.119725 -0.447991,0.925429 -1.682773,1.724689 -2.66447,1.724689 -0.89612,0 -2.165169,-0.780909 -2.638942,-1.623867 -0.41086,-0.731039 -0.449726,-1.088095 -0.449726,-4.132084 0,-3.079827 -0.02724,-3.323185 -0.360344,-3.216768 -0.198188,0.06335 -2.954817,0.980615 -6.125855,2.038416 l -5.76552,1.923275 -0.102954,2.454039 c -0.119858,2.856972 -0.412316,3.556593 -1.759282,4.208647 -1.062985,0.514585 -2.031864,0.969159 -2.683521,-0.0083 z m 2.482344,-21.57335 C 27.469143,70.2075 26.550041,69.545149 25.798542,68.50773 24.797016,67.125174 24.583411,66.007168 24.583411,62.147864 V 58.68475 h 21.636718 21.636722 l -0.06755,3.860829 c -0.05954,3.404178 -0.118807,3.971675 -0.501105,4.797901 -0.633875,1.369964 -1.601127,2.367592 -2.92656,3.018471 l -1.169907,0.57451 -16.678806,0.04724 c -15.419255,0.04366 -16.756883,0.02 -17.712664,-0.31273 z M 16.225231,63.456276 c -2.11656,-1.705139 -3.309481,-3.676081 -3.80436,-6.285567 -0.105671,-0.55721 -0.192126,-3.965582 -0.192126,-7.574163 v -6.561051 h -0.758636 c -1.7398488,0 -3.3595913,-1.489122 -3.3595913,-3.088669 0,-0.947565 0.7434517,-2.14412 1.6481174,-2.652573 0.7284319,-0.409404 1.0687119,-0.436098 5.5587779,-0.436098 4.535695,0 4.824191,0.02327 5.583021,0.449733 0.842958,0.473766 1.623867,1.742815 1.623867,2.638938 0,0.268239 -0.190889,0.882042 -0.424199,1.363995 -0.489985,1.012165 -1.702665,1.724674 -2.935393,1.724674 h -0.758627 v 6.627101 c 0,6.343715 0.01876,6.665894 0.439141,7.534262 0.521994,1.078277 1.793385,2.062619 2.890768,2.238106 l 0.78831,0.126061 v 3.062348 l -0.117321,2.347045 -0.587709,0.0047 c -2.25852,-0.159369 -4.161412,-0.491291 -5.59404,-1.518647 z m 54.070468,-1.632817 v -3.086077 l 0.78831,-0.12606 c 1.097383,-0.175487 2.368774,-1.15983 2.890768,-2.238107 0.420362,-0.868368 0.439141,-1.190546 0.439141,-7.534261 v -6.627102 h -0.758627 c -1.739858,0 -3.359592,-1.489121 -3.359592,-3.088671 0,-0.947563 0.743452,-2.144118 1.648117,-2.65257 0.728432,-0.409405 1.068712,-0.436099 5.55877,-0.436099 4.535703,0 4.824191,0.02327 5.583029,0.449734 0.842958,0.473766 1.623867,1.742814 1.623867,2.638935 0,0.268238 -0.190889,0.882045 -0.424199,1.363998 -0.488031,1.008133 -1.701708,1.724673 -2.921268,1.724673 h -0.744518 l -0.07557,7.258369 c -0.07035,6.762676 -0.105048,7.337202 -0.507612,8.412739 -1.441197,3.850448 -4.604601,6.384857 -8.591125,6.88295 l -1.149518,0.143626 z M 40.026752,57.140411 v -1.54433 l -4.272654,-0.0031 C 29.656827,55.588281 27.981899,55.095852 25.636916,52.61638 24.071301,50.960974 23.317475,49.216759 23.202489,46.983555 23.10204,45.032653 26.054181,8.6358915 26.443351,7.0272243 27.20545,3.8769935 30.077322,1.0403579 33.230709,0.3231349 34.430151,0.0503279 36.447306,4.8962431e-6 46.183123,4.8962431e-6 c 7.688241,0 11.895406,0.076490003757 12.622893,0.2295060037569 3.373647,0.709582 6.372879,3.5490531 7.152457,6.7714756 0.258331,1.0678111 3.308905,37.3972005 3.305223,39.3620255 -0.0082,4.376574 -3.161341,8.221299 -7.402048,9.025531 -0.601741,0.114115 -2.980959,0.207489 -5.287151,0.207489 h -4.193071 v 1.54433 1.544338 h -6.177337 -6.177337 z"
       id="path289"
       sodipodi:nodetypes="sscsscccccccsscsssscssssssscscsssscssccccsscscccsscsssssssscssscccccccssscsssscsssccsscccccssssssscsscccccc" />
  </g>
</svg>
