<?xml version="1.0" encoding="UTF-8" standalone="no"?>
<!-- Created with Inkscape (http://www.inkscape.org/) -->

<svg
   width="92.82mm"
   height="92.82mm"
   viewBox="0 0 92.82 92.82"
   version="1.1"
   id="svg5"
   inkscape:version="1.1.2 (1:1.1+202202050950+0a00cf5339)"
   xmlns:inkscape="http://www.inkscape.org/namespaces/inkscape"
   xmlns:sodipodi="http://sodipodi.sourceforge.net/DTD/sodipodi-0.dtd"
   xmlns="http://www.w3.org/2000/svg"
   xmlns:svg="http://www.w3.org/2000/svg">
  <sodipodi:namedview
     id="namedview7"
     pagecolor="#ffffff"
     bordercolor="#666666"
     borderopacity="1.0"
     inkscape:pageshadow="2"
     inkscape:pageopacity="0.0"
     inkscape:pagecheckerboard="0"
     inkscape:document-units="mm"
     showgrid="false"
     inkscape:zoom="0.51969075"
     inkscape:cx="-500.29753"
     inkscape:cy="509.91864"
     inkscape:window-width="1920"
     inkscape:window-height="1004"
     inkscape:window-x="1920"
     inkscape:window-y="45"
     inkscape:window-maximized="1"
     inkscape:current-layer="layer1" />
  <defs
     id="defs2" />
  <g
     inkscape:label="Camada 1"
     inkscape:groupmode="layer"
     id="layer1">
    <path
       style="fill:#ffffff;stroke-width:0.181389"
       d="m 8.4877854,92.571492 c -4.04482,-0.87184 -7.39951,-4.28737 -8.27354991,-8.42355 -0.53798,-2.54592 -0.0482,-5.451673 1.30199991,-7.726043 0.49854,-0.83969 3.88945,-4.33833 14.1082206,-14.5564 l 13.4519,-13.45103 7.66401,7.66554 7.66392,7.66554 -13.65031,13.62563 c -13.13125,13.107463 -13.70208,13.650693 -15.01075,14.284743 -2.34567,1.1365 -4.7961,1.4457 -7.2554406,0.91557 z m 6.7778306,-10.87295 c 0.31618,-0.15005 4.42336,-4.129233 9.12703,-8.842593 9.35025,-9.36956 9.20643,-9.1928 8.77655,-10.7894 -0.24822,-0.92169 -1.22729,-1.78976 -2.20497,-1.95491 -1.3729,-0.23194 -1.71136,0.0549 -10.72196,9.09733 -4.65852,4.67489 -8.55606,8.72954 -8.66119,9.01038 -0.88306,2.359103 1.43415,4.547083 3.68454,3.479193 z m 56.707432,11.04774 c -3.32778,-0.38707 -6.38196,-1.51471 -9.10147,-3.36038 -1.3423,-0.91095 -3.76765,-3.3445 -4.69657,-4.71242 -1.04218,-1.53472 -2.27615,-4.17994 -2.74121,-5.876473 -0.34226,-1.24838 -0.39711,-1.90705 -0.39283,-4.71599 0.004,-2.7163 0.0723,-3.55312 0.40542,-4.97943 l 0.40042,-1.71445 -15.201342,-15.20136 -15.20131,-15.20134 -1.72158,0.39224 c -1.3863,0.31582 -2.33958,0.39557 -4.89578,0.40962 -2.9287,0.0163 -3.31036,-0.0209 -4.93318,-0.47454 -6.6515606,-1.86043 -11.8350206,-7.31479 -13.40866051,-14.109673 -0.77983,-3.367284 -0.34166,-8.902843 0.80160991,-10.127359 0.82761,-0.88639 1.89258,-1.152864 2.97213,-0.743678 0.28087,0.106442 2.42883,2.093983 4.77323,4.416741 3.8371506,3.801673 4.3673306,4.262126 5.3123706,4.613193 3.30633,1.228358 6.73582,-0.680062 7.37646,-4.104847 0.17942,-0.959111 -0.0434,-2.520648 -0.48403,-3.391799 -0.15241,-0.301299 -2.17736,-2.465979 -4.49998,-4.8104013 -4.65698,-4.700711 -4.90221,-5.058291 -4.46634,-6.513087 0.50827,-1.69647196 2.58215,-2.43881596 6.82846,-2.44429296 5.24643,-0.0069 9.65208,1.80984696 13.34105,5.50107196 2.65527,2.656868 4.47385,6.0690633 5.274,9.8955303 0.36423,1.741843 0.27747,5.868677 -0.16393,7.799612 -0.20527,0.897839 -0.4214,1.754899 -0.48032,1.904559 -0.0739,0.1883 4.57442,4.95301 15.094402,15.47172 l 15.20147,15.19969 1.71427,-0.3988 c 2.55906,-0.59535 7.4245,-0.60583 9.60454,-0.0208 1.79163,0.48086 4.40775,1.68884 6.00137,2.77106 3.83754,2.60603 6.76624,7.12552 7.80969,12.05158 0.52573,2.48206 0.12604,7.77957 -0.69138,9.16332 -0.6064,1.026593 -2.09891,1.516403 -3.26763,1.072383 -0.28085,-0.10667 -2.38798,-2.056113 -4.68254,-4.332043 -2.65681,-2.63524 -4.46835,-4.28793 -4.98815,-4.55076 -1.195,-0.60412 -3.05458,-0.68615 -4.36224,-0.19236 -1.1289,0.42626 -2.35428,1.52425 -2.95583,2.6486 -0.57947,1.08287 -0.5588,3.6642 0.0387,4.80672 0.26091,0.49911 2.03596,2.437093 4.56876,4.988113 2.2782,2.29454 4.22825,4.40165 4.33347,4.68253 0.44202,1.1799 0.0259,2.42814 -1.07843,3.23289 -0.86142,0.62786 -5.32332,1.20081 -7.43684,0.95501 z m -16.23574,-56.307043 -3.8075,-3.81319 9.11791,-9.099657 9.11791,-9.099654 -0.61097,-0.645803 c -0.98356,-1.039529 -1.20932,-1.484414 -1.20932,-2.382505 0,-1.5513443 0.13336,-1.6573233 8.25559,-6.5581573 4.0889,-2.467163 7.74038,-4.58189896 8.11449,-4.69941596 1.33055,-0.417941 1.91132,-0.06851 4.97034,2.99049196 3.05896,3.058986 3.4084,3.639802 2.99045,4.970305 -0.1175,0.374115 -2.23222,4.0256363 -4.69937,8.1145003 -4.90083,8.122235 -5.00685,8.255615 -6.55818,8.255615 -0.95187,0 -1.34512,-0.21909 -2.64683,-1.474959 l -0.91007,-0.878056 -9.06551,9.066845 c -4.986,4.98675 -9.1073,9.0668 -9.15843,9.0668 -0.0514,0 -1.80634,-1.71591 -3.90051,-3.81316 z"
       id="path407" />
  </g>
</svg>
