<?xml version="1.0" encoding="UTF-8" standalone="no"?>
<!-- Created with Inkscape (http://www.inkscape.org/) -->

<svg
   width="92.82mm"
   height="92.82mm"
   viewBox="0 0 92.82 92.82"
   version="1.1"
   id="svg5"
   inkscape:version="1.1.2 (1:1.1+202202050950+0a00cf5339)"
   xmlns:inkscape="http://www.inkscape.org/namespaces/inkscape"
   xmlns:sodipodi="http://sodipodi.sourceforge.net/DTD/sodipodi-0.dtd"
   xmlns="http://www.w3.org/2000/svg"
   xmlns:svg="http://www.w3.org/2000/svg">
  <sodipodi:namedview
     id="namedview7"
     pagecolor="#ffffff"
     bordercolor="#666666"
     borderopacity="1.0"
     inkscape:pageshadow="2"
     inkscape:pageopacity="0.0"
     inkscape:pagecheckerboard="0"
     inkscape:document-units="mm"
     showgrid="false"
     inkscape:zoom="0.51969075"
     inkscape:cx="-500.29753"
     inkscape:cy="509.91864"
     inkscape:window-width="1920"
     inkscape:window-height="1004"
     inkscape:window-x="1920"
     inkscape:window-y="45"
     inkscape:window-maximized="1"
     inkscape:current-layer="layer1" />
  <defs
     id="defs2" />
  <g
     inkscape:label="Camada 1"
     inkscape:groupmode="layer"
     id="layer1">
    <path
       style="fill:#ffffff;stroke-width:0.18144"
       d="m 45.008042,92.646339 c -0.52171,-0.13244 -1.48028,-0.50234 -2.13016,-0.82228 -1.29651,-0.63832 -3.55301,-2.63307 -3.26581,-2.88714 0.0965,-0.0851 1.07359,-0.33882 2.17133,-0.56352 3.85991,-0.78983 8.81027,-2.34252 12.85761,-4.03282 1.18381,-0.49441 2.18023,-0.87118 2.21419,-0.83714 0.0343,0.0345 -0.37616,0.81076 -0.91145,1.72621 -3.28358,5.61544 -7.29904,8.33868 -10.93571,7.41669 z m -8.46288,-7.99927 c -0.6482,-1.17926 -1.79618,-3.74834 -1.70533,-3.8163 0.0268,-0.0203 0.88759,-0.13539 1.91288,-0.25612 6.64965,-0.78385 14.22878,-3.05087 21.49778,-6.43032 l 1.40731,-0.65438 -0.11205,1.03928 c -0.0976,0.90677 -0.753,4.23482 -0.85189,4.3271 -0.14771,0.13748 -5.11099,2.35553 -6.56818,2.93515 -3.70096,1.47222 -9.40261,3.10128 -13.14692,3.75621 -0.8525,0.14911 -1.60375,0.27149 -1.66944,0.27171 -0.0657,3.5e-4 -0.40955,-0.52726 -0.76416,-1.17233 z m -2.90881,-7.67252 c -0.26424,-1.29706 -0.46891,-2.94377 -0.47015,-3.78269 l -0.002,-0.92493 1.8598,-0.11563 c 6.14354,-0.38197 14.87613,-2.82448 22.40322,-6.26625 1.12,-0.51216 2.07934,-0.93109 2.13201,-0.93109 0.0525,0 0.0956,1.06672 0.0956,2.37046 v 2.37032 l -2.76699,1.33086 c -5.62661,2.70647 -11.17661,4.56643 -17.01024,5.70078 -2.2895,0.44506 -4.48968,0.74717 -5.44202,0.74717 -0.6161,0 -0.71018,-0.0586 -0.79987,-0.499 z m -0.47152,-10.65966 c 0,-2.12881 0.0483,-2.63098 0.25294,-2.63098 2.02181,0 7.51789,-0.89737 11.07767,-1.80868 4.19696,-1.07444 10.14169,-3.21321 13.2247,-4.7578 0.58213,-0.29168 1.25569,-0.60534 1.49693,-0.69705 l 0.43846,-0.16666 v 2.41399 2.41404 l -2.49485,1.19937 c -7.00035,3.36518 -14.42686,5.63765 -20.91019,6.3986 -3.47923,0.40829 -3.08566,0.70991 -3.08566,-2.36483 z m 0,-8.65488 v -2.63086 l 1.76908,-0.11875 c 6.42539,-0.43107 15.57176,-3.00408 22.6805,-6.3803 l 2.04112,-0.96949 v 2.44883 2.4488 l -2.58547,1.24109 c -7.43842,3.57068 -15.98657,6.07281 -22.12011,6.47466 l -1.78512,0.11703 z m 0,-8.58232 v -2.63095 l 10.38764,0.0105 10.38767,0.0104 -0.99796,0.45392 c -3.03284,1.37976 -8.17728,2.95221 -12.33817,3.77118 -1.78113,0.35066 -6.55427,1.01442 -7.30309,1.01557 -0.0749,1.3e-4 -0.13609,-1.18367 -0.13609,-2.6307 z m -2.12835,-6.02249 c -0.22254,-0.0439 -0.56954,-0.28978 -0.77113,-0.5461 -0.35701,-0.45384 -0.3665,-0.70969 -0.3665,-9.876544 v -9.41052 h 16.51135 16.511386 v 9.42494 9.424904 l -0.43785,0.50907 -0.4379,0.50907 -15.302336,0.0228 c -8.41631,0.0125 -15.48446,-0.0139 -15.70702,-0.0574 z M 19.510392,12.175297 c -5.13351,-4.2793818 -9.3869,-7.9194758 -9.45198,-8.0890778 -0.0651,-0.169603 -0.1183502,-1.159023 -0.1183502,-2.198697 v -1.89031503 h 14.0618702 14.06188 l 0.001,3.40206503 c 10e-4,3.694905 0.12327,4.451495 0.86031,5.327408 0.99894,1.187176 1.32905,1.241951 7.48508,1.241951 6.15603,0 6.48613,-0.05477 7.48508,-1.241951 0.737,-0.875913 0.85918,-1.632503 0.86031,-5.327408 l 6e-4,-3.40206503 h 14.061916 14.06183 V 1.8875222 c 0,1.039674 -0.0531,2.029094 -0.11835,2.198697 -0.065,0.169602 -4.31845,3.809696 -9.45201,8.0890778 l -9.33358,7.780696 H 46.409912 28.843752 Z"
       id="path93" />
  </g>
</svg>
